# xmcd
# Track frame offsets:
# 182
# 45215
# 82615
# 114982
# 139995
# 170302
# 198277
# 221910
# 242130
#
# Disc length: 3710 seconds
# Revision: 5
# Processed by: cddbd v1.5PL3 Copyright (c) Steve Scherf et al.
# Submitted via: VisiTrax 2.9.9.202 - For more info visit www.synapsa.com
#
DISCID=6f0e7c09
DTITLE=Book of Love - Boy (US Maxi Single)
DYEAR=2000
DGENRE=Dance
TTITLE0=Boy (Peter Rauhofer Club Mix)
TTITLE1=Boy (Peter Rauhofer Dub)
TTITLE2=Boy (Headrillaz Extended Vocal Mix)
TTITLE3=Boy (Headrillaz Dub)
TTITLE4=Boy (RPO Remix)
TTITLE5=Boy (Dubaholics Remix)
TTITLE6=Boy (Dubaholics Dub)
TTITLE7=Boy (Original 12" Version)
TTITLE8=Boy (Sound Bisquit "Blame" Dub)
EXTD=
EXTT0=
EXTT1=
EXTT2=
EXTT3=
EXTT4=
EXTT5=
EXTT6=
EXTT7=
EXTT8=
PLAYORDER=
